<svg width="218" height="147" viewBox="0 0 218 147" fill="none" xmlns="http://www.w3.org/2000/svg">
<rect width="218" height="146.167" rx="6" fill="url(#paint0_linear_5806_8949)"></rect>
<rect x="16" y="16" width="26" height="26" rx="4" fill="#8270DB"></rect>
<path fill-rule="evenodd" clip-rule="evenodd" d="M33.8732 26.5606C35.3699 26.5606 36.5832 25.3473 36.5832 23.8506C36.5832 22.3539 35.3699 21.1406 33.8732 21.1406C32.6596 21.1406 31.6323 21.9384 31.2871 23.0381H28.0866L25.5121 28.1871H21.4072V29.8121H25.5121L28.0866 34.9611H31.2871C31.6323 36.0609 32.6596 36.8586 33.8732 36.8586C35.3699 36.8586 36.5832 35.6453 36.5832 34.1486C36.5832 32.6519 35.3699 31.4386 33.8732 31.4386C32.6596 31.4386 31.6323 32.2364 31.2871 33.3361H29.0909L26.9226 28.9996L29.0909 24.6631H31.2871C31.6323 25.7629 32.6596 26.5606 33.8732 26.5606ZM33.8732 24.9356C34.4725 24.9356 34.9582 24.4499 34.9582 23.8506C34.9582 23.2514 34.4725 22.7656 33.8732 22.7656C33.274 22.7656 32.7882 23.2514 32.7882 23.8506C32.7882 24.4499 33.274 24.9356 33.8732 24.9356ZM34.9582 34.1486C34.9582 34.7479 34.4725 35.2336 33.8732 35.2336C33.274 35.2336 32.7882 34.7479 32.7882 34.1486C32.7882 33.5494 33.274 33.0636 33.8732 33.0636C34.4725 33.0636 34.9582 33.5494 34.9582 34.1486Z" fill="white"></path>
<path d="M56.2842 34.2393C55.3682 34.2393 54.5775 34.0296 53.9121 33.6104C53.2467 33.1911 52.734 32.5964 52.374 31.8262C52.014 31.056 51.834 30.14 51.834 29.0781V29.0645C51.834 27.998 52.014 27.0798 52.374 26.3096C52.734 25.5394 53.2445 24.9447 53.9053 24.5254C54.5706 24.1061 55.3613 23.8965 56.2773 23.8965C56.9974 23.8965 57.6491 24.0378 58.2324 24.3203C58.8203 24.6029 59.3011 24.9948 59.6748 25.4961C60.0485 25.9974 60.2786 26.5716 60.3652 27.2188L60.3584 27.2598H58.8682L58.8613 27.2324C58.7656 26.8268 58.5947 26.4759 58.3486 26.1797C58.1071 25.8789 57.8086 25.6465 57.4531 25.4824C57.1022 25.3184 56.7103 25.2363 56.2773 25.2363C55.6849 25.2363 55.1722 25.3936 54.7393 25.708C54.3063 26.0179 53.9714 26.4577 53.7344 27.0273C53.502 27.597 53.3857 28.276 53.3857 29.0645V29.0781C53.3857 29.8574 53.502 30.5342 53.7344 31.1084C53.9714 31.6781 54.3063 32.1201 54.7393 32.4346C55.1722 32.7445 55.6872 32.8994 56.2842 32.8994C56.7217 32.8994 57.1159 32.8265 57.4668 32.6807C57.8223 32.5348 58.1185 32.3275 58.3555 32.0586C58.597 31.7852 58.7633 31.4639 58.8545 31.0947L58.8682 31.0605H60.3652V31.1016C60.2695 31.7305 60.0371 32.2796 59.668 32.749C59.2988 33.2184 58.8249 33.5853 58.2461 33.8496C57.6719 34.1094 57.0179 34.2393 56.2842 34.2393ZM65.3486 34.1436C64.6286 34.1436 64.0065 33.9886 63.4824 33.6787C62.9583 33.3688 62.5527 32.9268 62.2656 32.3525C61.9831 31.7738 61.8418 31.0879 61.8418 30.2949V30.2812C61.8418 29.4837 61.9831 28.7979 62.2656 28.2236C62.5527 27.6494 62.9583 27.2096 63.4824 26.9043C64.0065 26.5944 64.6286 26.4395 65.3486 26.4395C66.0732 26.4395 66.6953 26.5944 67.2148 26.9043C67.7389 27.2096 68.1423 27.6494 68.4248 28.2236C68.7074 28.7979 68.8486 29.4837 68.8486 30.2812V30.2949C68.8486 31.0879 68.7074 31.7738 68.4248 32.3525C68.1423 32.9268 67.7389 33.3688 67.2148 33.6787C66.6953 33.9886 66.0732 34.1436 65.3486 34.1436ZM65.3486 32.9131C65.777 32.9131 66.1393 32.8105 66.4355 32.6055C66.7363 32.3958 66.9642 32.0973 67.1191 31.71C67.2786 31.318 67.3584 30.8464 67.3584 30.2949V30.2812C67.3584 29.7298 67.2786 29.2604 67.1191 28.873C66.9596 28.4811 66.7318 28.1826 66.4355 27.9775C66.1393 27.7679 65.777 27.6631 65.3486 27.6631C64.9202 27.6631 64.5557 27.7679 64.2549 27.9775C63.9587 28.1826 63.7308 28.4811 63.5713 28.873C63.4163 29.2604 63.3389 29.7298 63.3389 30.2812V30.2949C63.3389 30.8464 63.4163 31.318 63.5713 31.71C63.7308 32.0973 63.9587 32.3958 64.2549 32.6055C64.5557 32.8105 64.9202 32.9131 65.3486 32.9131ZM70.626 34V26.5762H72.082V27.7178H72.1982C72.3577 27.3122 72.613 26.9977 72.9639 26.7744C73.3148 26.5511 73.7318 26.4395 74.2148 26.4395C74.5521 26.4395 74.8551 26.4941 75.124 26.6035C75.3929 26.7129 75.623 26.8678 75.8145 27.0684C76.0104 27.2643 76.1631 27.4945 76.2725 27.7588H76.3887C76.5117 27.4945 76.6849 27.2643 76.9082 27.0684C77.1315 26.8678 77.3913 26.7129 77.6875 26.6035C77.9837 26.4941 78.3027 26.4395 78.6445 26.4395C79.1458 26.4395 79.5719 26.5352 79.9229 26.7266C80.2783 26.918 80.5495 27.196 80.7363 27.5605C80.9277 27.9251 81.0234 28.3649 81.0234 28.8799V34H79.5605V29.2354C79.5605 28.889 79.5081 28.6019 79.4033 28.374C79.2985 28.1462 79.139 27.9753 78.9248 27.8613C78.7152 27.7474 78.4486 27.6904 78.125 27.6904C77.806 27.6904 77.528 27.7633 77.291 27.9092C77.054 28.0505 76.8695 28.2441 76.7373 28.4902C76.6097 28.7318 76.5459 29.0029 76.5459 29.3037V34H75.0898V29.0781C75.0898 28.7956 75.0306 28.5518 74.9121 28.3467C74.7982 28.137 74.6318 27.9753 74.4131 27.8613C74.1989 27.7474 73.946 27.6904 73.6543 27.6904C73.3535 27.6904 73.0846 27.7679 72.8477 27.9229C72.6107 28.0778 72.4238 28.2897 72.2871 28.5586C72.1504 28.8229 72.082 29.1169 72.082 29.4404V34H70.626ZM83.0947 36.4746V26.5762H84.5508V27.752H84.667C84.8083 27.4785 84.9906 27.2461 85.2139 27.0547C85.4417 26.8587 85.7015 26.7106 85.9932 26.6104C86.2848 26.5055 86.6038 26.4531 86.9502 26.4531C87.5745 26.4531 88.1169 26.6104 88.5771 26.9248C89.0374 27.2393 89.3929 27.6836 89.6436 28.2578C89.8988 28.8275 90.0264 29.502 90.0264 30.2812V30.2949C90.0264 31.0788 89.8988 31.7578 89.6436 32.332C89.3929 32.9017 89.0374 33.3438 88.5771 33.6582C88.1169 33.9681 87.5745 34.123 86.9502 34.123C86.6084 34.123 86.2894 34.0706 85.9932 33.9658C85.6969 33.8564 85.4349 33.7061 85.207 33.5146C84.9792 33.3232 84.7992 33.0931 84.667 32.8242H84.5508V36.4746H83.0947ZM86.54 32.8721C86.9593 32.8721 87.3171 32.7695 87.6133 32.5645C87.9095 32.3548 88.1374 32.0586 88.2969 31.6758C88.4564 31.2884 88.5361 30.8281 88.5361 30.2949V30.2812C88.5361 29.7435 88.4564 29.2832 88.2969 28.9004C88.1374 28.5176 87.9095 28.2236 87.6133 28.0186C87.3171 27.8089 86.9593 27.7041 86.54 27.7041C86.1253 27.7041 85.7653 27.8089 85.46 28.0186C85.1592 28.2282 84.9268 28.5244 84.7627 28.9072C84.6032 29.29 84.5234 29.748 84.5234 30.2812V30.2949C84.5234 30.8236 84.6055 31.2816 84.7695 31.6689C84.9336 32.0563 85.166 32.3548 85.4668 32.5645C85.7676 32.7695 86.1253 32.8721 86.54 32.8721ZM94.9482 34.1436C94.2282 34.1436 93.6061 33.9886 93.082 33.6787C92.5579 33.3688 92.1523 32.9268 91.8652 32.3525C91.5827 31.7738 91.4414 31.0879 91.4414 30.2949V30.2812C91.4414 29.4837 91.5827 28.7979 91.8652 28.2236C92.1523 27.6494 92.5579 27.2096 93.082 26.9043C93.6061 26.5944 94.2282 26.4395 94.9482 26.4395C95.6729 26.4395 96.2949 26.5944 96.8145 26.9043C97.3385 27.2096 97.7419 27.6494 98.0244 28.2236C98.307 28.7979 98.4482 29.4837 98.4482 30.2812V30.2949C98.4482 31.0879 98.307 31.7738 98.0244 32.3525C97.7419 32.9268 97.3385 33.3688 96.8145 33.6787C96.2949 33.9886 95.6729 34.1436 94.9482 34.1436ZM94.9482 32.9131C95.3766 32.9131 95.7389 32.8105 96.0352 32.6055C96.3359 32.3958 96.5638 32.0973 96.7188 31.71C96.8783 31.318 96.958 30.8464 96.958 30.2949V30.2812C96.958 29.7298 96.8783 29.2604 96.7188 28.873C96.5592 28.4811 96.3314 28.1826 96.0352 27.9775C95.7389 27.7679 95.3766 27.6631 94.9482 27.6631C94.5199 27.6631 94.1553 27.7679 93.8545 27.9775C93.5583 28.1826 93.3304 28.4811 93.1709 28.873C93.016 29.2604 92.9385 29.7298 92.9385 30.2812V30.2949C92.9385 30.8464 93.016 31.318 93.1709 31.71C93.3304 32.0973 93.5583 32.3958 93.8545 32.6055C94.1553 32.8105 94.5199 32.9131 94.9482 32.9131ZM100.226 34V26.5762H101.682V27.7041H101.798C101.98 27.3076 102.249 26.9977 102.604 26.7744C102.96 26.5511 103.407 26.4395 103.944 26.4395C104.778 26.4395 105.416 26.6787 105.858 27.1572C106.3 27.6312 106.521 28.3102 106.521 29.1943V34H105.065V29.543C105.065 28.9186 104.933 28.4538 104.669 28.1484C104.409 27.8431 104.006 27.6904 103.459 27.6904C103.094 27.6904 102.78 27.7702 102.516 27.9297C102.251 28.0892 102.046 28.3148 101.9 28.6064C101.755 28.8936 101.682 29.2399 101.682 29.6455V34H100.226ZM111.71 34.1436C110.99 34.1436 110.37 33.9886 109.851 33.6787C109.331 33.3643 108.93 32.9199 108.647 32.3457C108.369 31.7715 108.23 31.0924 108.23 30.3086V30.3018C108.23 29.5316 108.369 28.8571 108.647 28.2783C108.93 27.6995 109.326 27.2484 109.837 26.9248C110.347 26.6012 110.947 26.4395 111.635 26.4395C112.327 26.4395 112.922 26.5944 113.419 26.9043C113.916 27.2142 114.299 27.6494 114.567 28.21C114.836 28.766 114.971 29.4154 114.971 30.1582V30.6777H108.976V29.625H114.246L113.535 30.5957V30.0146C113.535 29.4814 113.455 29.0394 113.296 28.6885C113.136 28.3376 112.913 28.0755 112.626 27.9023C112.343 27.7292 112.015 27.6426 111.642 27.6426C111.272 27.6426 110.942 27.7337 110.65 27.916C110.359 28.0983 110.129 28.3672 109.96 28.7227C109.791 29.0736 109.707 29.5042 109.707 30.0146V30.6025C109.707 31.0902 109.789 31.5094 109.953 31.8604C110.117 32.2067 110.352 32.4733 110.657 32.6602C110.963 32.8424 111.325 32.9336 111.744 32.9336C112.063 32.9336 112.339 32.8903 112.571 32.8037C112.804 32.7126 112.993 32.6009 113.139 32.4688C113.289 32.3366 113.394 32.2044 113.453 32.0723L113.474 32.0176H114.889L114.875 32.0791C114.811 32.3252 114.7 32.569 114.54 32.8105C114.381 33.0521 114.171 33.2731 113.911 33.4736C113.651 33.6742 113.337 33.8359 112.968 33.959C112.603 34.082 112.184 34.1436 111.71 34.1436ZM116.741 34V26.5762H118.197V27.7041H118.313C118.496 27.3076 118.765 26.9977 119.12 26.7744C119.476 26.5511 119.922 26.4395 120.46 26.4395C121.294 26.4395 121.932 26.6787 122.374 27.1572C122.816 27.6312 123.037 28.3102 123.037 29.1943V34H121.581V29.543C121.581 28.9186 121.449 28.4538 121.185 28.1484C120.925 27.8431 120.521 27.6904 119.975 27.6904C119.61 27.6904 119.296 27.7702 119.031 27.9297C118.767 28.0892 118.562 28.3148 118.416 28.6064C118.27 28.8936 118.197 29.2399 118.197 29.6455V34H116.741ZM127.904 34.0479C127.098 34.0479 126.514 33.8929 126.154 33.583C125.794 33.2686 125.614 32.7559 125.614 32.0449V27.7383H124.452V26.5762H125.614V24.71H127.104V26.5762H128.697V27.7383H127.104V31.6963C127.104 32.0973 127.184 32.3867 127.344 32.5645C127.508 32.7422 127.772 32.8311 128.137 32.8311C128.251 32.8311 128.346 32.8288 128.424 32.8242C128.501 32.8197 128.592 32.8128 128.697 32.8037V33.9727C128.583 33.9909 128.458 34.0068 128.321 34.0205C128.189 34.0387 128.05 34.0479 127.904 34.0479Z" fill="#626F86"></path>
<rect x="139" y="23.5" width="57" height="11" rx="1" fill="#DCDFE4"></rect>
<rect x="16" y="59" width="26" height="26" rx="4" fill="#F5CD47"></rect>
<path fill-rule="evenodd" clip-rule="evenodd" d="M24.6666 69.292C25.564 69.292 26.2916 68.5645 26.2916 67.667C26.2916 66.7695 25.564 66.042 24.6666 66.042C23.7691 66.042 23.0416 66.7695 23.0416 67.667C23.0416 68.5645 23.7691 69.292 24.6666 69.292ZM24.6666 70.917C26.4615 70.917 27.9166 69.4619 27.9166 67.667C27.9166 65.8721 26.4615 64.417 24.6666 64.417C22.8717 64.417 21.4166 65.8721 21.4166 67.667C21.4166 69.4619 22.8717 70.917 24.6666 70.917Z" fill="#7F5F01"></path>
<path fill-rule="evenodd" clip-rule="evenodd" d="M33.3333 69.292C34.2307 69.292 34.9583 68.5645 34.9583 67.667C34.9583 66.7695 34.2307 66.042 33.3333 66.042C32.4358 66.042 31.7083 66.7695 31.7083 67.667C31.7083 68.5645 32.4358 69.292 33.3333 69.292ZM33.3333 70.917C35.1282 70.917 36.5833 69.4619 36.5833 67.667C36.5833 65.8721 35.1282 64.417 33.3333 64.417C31.5383 64.417 30.0833 65.8721 30.0833 67.667C30.0833 69.4619 31.5383 70.917 33.3333 70.917Z" fill="#7F5F01"></path>
<path d="M33.6041 72.0003C35.8472 72.0007 37.6666 73.8192 37.6666 76.0628V77.417C37.6666 78.6136 36.6965 79.5837 35.4999 79.5837H32.3596C30.6513 79.5837 29.1255 78.515 28.5417 76.9095L27.9309 75.2298C27.5807 74.2666 26.6652 73.6253 25.6402 73.6253H24.3958C23.0496 73.6253 21.9583 74.7166 21.9583 76.0628V77.417C21.9583 77.7162 22.2008 77.9587 22.4999 77.9587H26.8333V79.5837H22.4999C21.3033 79.5837 20.3333 78.6136 20.3333 77.417V76.0628C20.3333 73.8192 22.1521 72.0003 24.3958 72.0003H25.6402C27.3485 72.0003 28.8743 73.069 29.4581 74.6745L30.0689 76.3542C30.4192 77.3174 31.3347 77.9587 32.3596 77.9587H35.4999C35.7991 77.9587 36.0416 77.7162 36.0416 77.417V76.0628C36.0416 74.7171 34.9502 73.6257 33.6041 73.6253H32.3596V72.0003H33.6041Z" fill="#7F5F01"></path>
<path d="M32.3596 72.0003C31.9227 72.0003 31.2086 72.1147 30.6671 72.3712L31.3627 73.8398C31.4895 73.7797 31.6715 73.7233 31.8738 73.6825C32.0753 73.6419 32.2537 73.6253 32.3596 73.6253V72.0003Z" fill="#7F5F01"></path>
<path d="M53.7461 77V68.4414H50.6357V67.1357H58.3604V68.4414H55.25V77H53.7461ZM61.833 77.1436C61.113 77.1436 60.4932 76.9886 59.9736 76.6787C59.4541 76.3643 59.0531 75.9199 58.7705 75.3457C58.4925 74.7715 58.3535 74.0924 58.3535 73.3086V73.3018C58.3535 72.5316 58.4925 71.8571 58.7705 71.2783C59.0531 70.6995 59.4495 70.2484 59.96 69.9248C60.4704 69.6012 61.0697 69.4395 61.7578 69.4395C62.4505 69.4395 63.0452 69.5944 63.542 69.9043C64.0387 70.2142 64.4215 70.6494 64.6904 71.21C64.9593 71.766 65.0938 72.4154 65.0938 73.1582V73.6777H59.0986V72.625H64.3691L63.6582 73.5957V73.0146C63.6582 72.4814 63.5785 72.0394 63.4189 71.6885C63.2594 71.3376 63.0361 71.0755 62.749 70.9023C62.4665 70.7292 62.1383 70.6426 61.7646 70.6426C61.3955 70.6426 61.0651 70.7337 60.7734 70.916C60.4818 71.0983 60.2516 71.3672 60.083 71.7227C59.9144 72.0736 59.8301 72.5042 59.8301 73.0146V73.6025C59.8301 74.0902 59.9121 74.5094 60.0762 74.8604C60.2402 75.2067 60.4749 75.4733 60.7803 75.6602C61.0856 75.8424 61.4479 75.9336 61.8672 75.9336C62.1862 75.9336 62.4619 75.8903 62.6943 75.8037C62.9268 75.7126 63.1159 75.6009 63.2617 75.4688C63.4121 75.3366 63.5169 75.2044 63.5762 75.0723L63.5967 75.0176H65.0117L64.998 75.0791C64.9342 75.3252 64.8226 75.569 64.6631 75.8105C64.5036 76.0521 64.2939 76.2731 64.0342 76.4736C63.7744 76.6742 63.46 76.8359 63.0908 76.959C62.7262 77.082 62.307 77.1436 61.833 77.1436ZM68.8945 77.123C68.4251 77.123 68.0036 77.0342 67.6299 76.8564C67.2607 76.6742 66.9691 76.4189 66.7549 76.0908C66.5407 75.7581 66.4336 75.3662 66.4336 74.915V74.9014C66.4336 74.4593 66.5407 74.0811 66.7549 73.7666C66.9736 73.4476 67.2881 73.1992 67.6982 73.0215C68.113 72.8392 68.6143 72.7321 69.2021 72.7002L71.9365 72.5361V73.5752L69.3936 73.7393C68.8786 73.7666 68.5003 73.8737 68.2588 74.0605C68.0173 74.2474 67.8965 74.5072 67.8965 74.8398V74.8535C67.8965 75.1999 68.0264 75.471 68.2861 75.667C68.5505 75.8584 68.8831 75.9541 69.2842 75.9541C69.6579 75.9541 69.9883 75.8789 70.2754 75.7285C70.5671 75.5781 70.7949 75.3753 70.959 75.1201C71.1276 74.8649 71.2119 74.5778 71.2119 74.2588V71.9209C71.2119 71.5107 71.0843 71.1963 70.8291 70.9775C70.5739 70.7588 70.1934 70.6494 69.6875 70.6494C69.2728 70.6494 68.9333 70.7223 68.6689 70.8682C68.4092 71.014 68.2337 71.2191 68.1426 71.4834L68.1357 71.5107H66.7275L66.7344 71.4561C66.7936 71.0505 66.9554 70.6973 67.2197 70.3965C67.484 70.0957 67.8327 69.861 68.2656 69.6924C68.6986 69.5238 69.1953 69.4395 69.7559 69.4395C70.3757 69.4395 70.902 69.5397 71.335 69.7402C71.7679 69.9362 72.096 70.221 72.3193 70.5947C72.5472 70.9639 72.6611 71.4059 72.6611 71.9209V77H71.2119V75.9473H71.0957C70.9544 76.1934 70.7744 76.4053 70.5557 76.583C70.3369 76.7607 70.0885 76.8952 69.8105 76.9863C69.5326 77.0775 69.2272 77.123 68.8945 77.123ZM74.7666 77V69.5762H76.2227V70.7178H76.3389C76.4984 70.3122 76.7536 69.9977 77.1045 69.7744C77.4554 69.5511 77.8724 69.4395 78.3555 69.4395C78.6927 69.4395 78.9958 69.4941 79.2646 69.6035C79.5335 69.7129 79.7637 69.8678 79.9551 70.0684C80.151 70.2643 80.3037 70.4945 80.4131 70.7588H80.5293C80.6523 70.4945 80.8255 70.2643 81.0488 70.0684C81.2721 69.8678 81.5319 69.7129 81.8281 69.6035C82.1243 69.4941 82.4434 69.4395 82.7852 69.4395C83.2865 69.4395 83.7126 69.5352 84.0635 69.7266C84.4189 69.918 84.6901 70.196 84.877 70.5605C85.0684 70.9251 85.1641 71.3649 85.1641 71.8799V77H83.7012V72.2354C83.7012 71.889 83.6488 71.6019 83.5439 71.374C83.4391 71.1462 83.2796 70.9753 83.0654 70.8613C82.8558 70.7474 82.5892 70.6904 82.2656 70.6904C81.9466 70.6904 81.6686 70.7633 81.4316 70.9092C81.1947 71.0505 81.0101 71.2441 80.8779 71.4902C80.7503 71.7318 80.6865 72.0029 80.6865 72.3037V77H79.2305V72.0781C79.2305 71.7956 79.1712 71.5518 79.0527 71.3467C78.9388 71.137 78.7725 70.9753 78.5537 70.8613C78.3395 70.7474 78.0866 70.6904 77.7949 70.6904C77.4941 70.6904 77.2253 70.7679 76.9883 70.9229C76.7513 71.0778 76.5645 71.2897 76.4277 71.5586C76.291 71.8229 76.2227 72.1169 76.2227 72.4404V77H74.7666Z" fill="#626F86"></path>
<rect x="95" y="66.5" width="101" height="11" rx="1" fill="#DCDFE4"></rect>
<path d="M21.6942 119.351C21.6942 120.884 20.5384 122.136 19.1236 122.136C17.7088 122.136 16.553 120.884 16.553 119.351C16.553 117.818 17.7088 116.566 19.1236 116.566H21.6942V119.351Z" fill="#E01E5A"></path>
<path d="M22.9893 119.351C22.9893 117.818 24.145 116.566 25.5599 116.566C26.9747 116.566 28.1305 117.818 28.1305 119.351V126.324C28.1305 127.857 26.9747 129.109 25.5599 129.109C24.145 129.109 22.9893 127.857 22.9893 126.324V119.351Z" fill="#E01E5A"></path>
<path d="M25.5599 108.169C24.145 108.169 22.9893 106.917 22.9893 105.384C22.9893 103.852 24.145 102.6 25.5599 102.6C26.9747 102.6 28.1305 103.852 28.1305 105.384V108.169H25.5599Z" fill="#36C5F0"></path>
<path d="M25.5601 109.572C26.9749 109.572 28.1307 110.824 28.1307 112.357C28.1307 113.89 26.9749 115.142 25.5601 115.142H19.1236C17.7088 115.142 16.553 113.89 16.553 112.357C16.553 110.824 17.7088 109.572 19.1236 109.572H25.5601Z" fill="#36C5F0"></path>
<path d="M35.8823 112.356C35.8823 110.823 37.0381 109.571 38.4529 109.571C39.8677 109.571 41.0235 110.823 41.0235 112.356C41.0235 113.889 39.8677 115.141 38.4529 115.141H35.8823V112.356Z" fill="#2EB67D"></path>
<path d="M34.5868 112.356C34.5868 113.889 33.431 115.141 32.0162 115.141C30.6013 115.141 29.4456 113.889 29.4456 112.356V105.383C29.4456 103.851 30.6013 102.599 32.0162 102.599C33.431 102.599 34.5868 103.851 34.5868 105.383V112.356Z" fill="#2EB67D"></path>
<path d="M32.0162 123.539C33.431 123.539 34.5868 124.791 34.5868 126.324C34.5868 127.857 33.431 129.109 32.0162 129.109C30.6013 129.109 29.4456 127.857 29.4456 126.324V123.539H32.0162Z" fill="#ECB22E"></path>
<path d="M32.0162 122.136C30.6013 122.136 29.4456 120.884 29.4456 119.351C29.4456 117.818 30.6013 116.566 32.0162 116.566H38.4526C39.8675 116.566 41.0232 117.818 41.0232 119.351C41.0232 120.884 39.8675 122.136 38.4526 122.136H32.0162Z" fill="#ECB22E"></path>
<path d="M55.2842 121.322C54.3682 121.322 53.5775 121.113 52.9121 120.693C52.2467 120.274 51.734 119.679 51.374 118.909C51.014 118.139 50.834 117.223 50.834 116.161V116.147C50.834 115.081 51.014 114.163 51.374 113.393C51.734 112.622 52.2445 112.028 52.9053 111.608C53.5706 111.189 54.3613 110.979 55.2773 110.979C55.9974 110.979 56.6491 111.121 57.2324 111.403C57.8203 111.686 58.3011 112.078 58.6748 112.579C59.0485 113.08 59.2786 113.655 59.3652 114.302L59.3584 114.343H57.8682L57.8613 114.315C57.7656 113.91 57.5947 113.559 57.3486 113.263C57.1071 112.962 56.8086 112.729 56.4531 112.565C56.1022 112.401 55.7103 112.319 55.2773 112.319C54.6849 112.319 54.1722 112.477 53.7393 112.791C53.3063 113.101 52.9714 113.541 52.7344 114.11C52.502 114.68 52.3857 115.359 52.3857 116.147V116.161C52.3857 116.94 52.502 117.617 52.7344 118.191C52.9714 118.761 53.3063 119.203 53.7393 119.518C54.1722 119.827 54.6872 119.982 55.2842 119.982C55.7217 119.982 56.1159 119.91 56.4668 119.764C56.8223 119.618 57.1185 119.41 57.3555 119.142C57.597 118.868 57.7633 118.547 57.8545 118.178L57.8682 118.144H59.3652V118.185C59.2695 118.813 59.0371 119.363 58.668 119.832C58.2988 120.301 57.8249 120.668 57.2461 120.933C56.6719 121.192 56.0179 121.322 55.2842 121.322ZM61.2861 121.083V110.754H62.7422V114.787H62.8584C63.0407 114.391 63.3096 114.081 63.665 113.857C64.0205 113.634 64.4671 113.522 65.0049 113.522C65.5609 113.522 66.0303 113.63 66.4131 113.844C66.7959 114.058 67.0853 114.37 67.2812 114.78C67.4818 115.19 67.582 115.689 67.582 116.277V121.083H66.126V116.626C66.126 116.002 65.9938 115.537 65.7295 115.231C65.4697 114.926 65.0664 114.773 64.5195 114.773C64.1549 114.773 63.8405 114.853 63.5762 115.013C63.3118 115.172 63.1068 115.398 62.9609 115.689C62.8151 115.977 62.7422 116.323 62.7422 116.729V121.083H61.2861ZM71.6973 121.206C71.2279 121.206 70.8063 121.117 70.4326 120.939C70.0635 120.757 69.7718 120.502 69.5576 120.174C69.3434 119.841 69.2363 119.449 69.2363 118.998V118.984C69.2363 118.542 69.3434 118.164 69.5576 117.85C69.7764 117.531 70.0908 117.282 70.501 117.104C70.9157 116.922 71.417 116.815 72.0049 116.783L74.7393 116.619V117.658L72.1963 117.822C71.6813 117.85 71.3031 117.957 71.0615 118.144C70.82 118.33 70.6992 118.59 70.6992 118.923V118.937C70.6992 119.283 70.8291 119.554 71.0889 119.75C71.3532 119.941 71.6859 120.037 72.0869 120.037C72.4606 120.037 72.791 119.962 73.0781 119.812C73.3698 119.661 73.5977 119.458 73.7617 119.203C73.9303 118.948 74.0146 118.661 74.0146 118.342V116.004C74.0146 115.594 73.887 115.279 73.6318 115.061C73.3766 114.842 72.9961 114.732 72.4902 114.732C72.0755 114.732 71.736 114.805 71.4717 114.951C71.2119 115.097 71.0365 115.302 70.9453 115.566L70.9385 115.594H69.5303L69.5371 115.539C69.5964 115.133 69.7581 114.78 70.0225 114.479C70.2868 114.179 70.6354 113.944 71.0684 113.775C71.5013 113.607 71.998 113.522 72.5586 113.522C73.1784 113.522 73.7048 113.623 74.1377 113.823C74.5706 114.019 74.8988 114.304 75.1221 114.678C75.3499 115.047 75.4639 115.489 75.4639 116.004V121.083H74.0146V120.03H73.8984C73.7572 120.276 73.5771 120.488 73.3584 120.666C73.1396 120.844 72.8913 120.978 72.6133 121.069C72.3353 121.16 72.0299 121.206 71.6973 121.206ZM77.5693 121.083V113.659H79.0254V114.787H79.1416C79.3239 114.391 79.5928 114.081 79.9482 113.857C80.3037 113.634 80.7503 113.522 81.2881 113.522C82.1221 113.522 82.7601 113.762 83.2021 114.24C83.6442 114.714 83.8652 115.393 83.8652 116.277V121.083H82.4092V116.626C82.4092 116.002 82.277 115.537 82.0127 115.231C81.7529 114.926 81.3496 114.773 80.8027 114.773C80.4382 114.773 80.1237 114.853 79.8594 115.013C79.5951 115.172 79.39 115.398 79.2441 115.689C79.0983 115.977 79.0254 116.323 79.0254 116.729V121.083H77.5693ZM85.9502 121.083V113.659H87.4062V114.787H87.5225C87.7048 114.391 87.9736 114.081 88.3291 113.857C88.6846 113.634 89.1312 113.522 89.6689 113.522C90.5029 113.522 91.141 113.762 91.583 114.24C92.0251 114.714 92.2461 115.393 92.2461 116.277V121.083H90.79V116.626C90.79 116.002 90.6579 115.537 90.3936 115.231C90.1338 114.926 89.7305 114.773 89.1836 114.773C88.819 114.773 88.5046 114.853 88.2402 115.013C87.9759 115.172 87.7708 115.398 87.625 115.689C87.4792 115.977 87.4062 116.323 87.4062 116.729V121.083H85.9502ZM97.4346 121.227C96.7145 121.227 96.0947 121.072 95.5752 120.762C95.0557 120.447 94.6546 120.003 94.3721 119.429C94.0941 118.854 93.9551 118.175 93.9551 117.392V117.385C93.9551 116.615 94.0941 115.94 94.3721 115.361C94.6546 114.783 95.0511 114.331 95.5615 114.008C96.0719 113.684 96.6712 113.522 97.3594 113.522C98.0521 113.522 98.6468 113.677 99.1436 113.987C99.6403 114.297 100.023 114.732 100.292 115.293C100.561 115.849 100.695 116.498 100.695 117.241V117.761H94.7002V116.708H99.9707L99.2598 117.679V117.098C99.2598 116.564 99.18 116.122 99.0205 115.771C98.861 115.421 98.6377 115.159 98.3506 114.985C98.068 114.812 97.7399 114.726 97.3662 114.726C96.9971 114.726 96.6667 114.817 96.375 114.999C96.0833 115.181 95.8532 115.45 95.6846 115.806C95.516 116.157 95.4316 116.587 95.4316 117.098V117.686C95.4316 118.173 95.5137 118.592 95.6777 118.943C95.8418 119.29 96.0765 119.556 96.3818 119.743C96.6872 119.925 97.0495 120.017 97.4688 120.017C97.7878 120.017 98.0635 119.973 98.2959 119.887C98.5283 119.796 98.7174 119.684 98.8633 119.552C99.0137 119.42 99.1185 119.287 99.1777 119.155L99.1982 119.101H100.613L100.6 119.162C100.536 119.408 100.424 119.652 100.265 119.894C100.105 120.135 99.8955 120.356 99.6357 120.557C99.376 120.757 99.0615 120.919 98.6924 121.042C98.3278 121.165 97.9085 121.227 97.4346 121.227ZM102.534 121.083V110.754H103.99V121.083H102.534Z" fill="#626F86"></path>
<rect x="114" y="110.583" width="81" height="11" rx="1" fill="#DCDFE4"></rect>
<defs>
<linearGradient id="paint0_linear_5806_8949" x1="109" y1="51" x2="109" y2="146.167" gradientUnits="userSpaceOnUse">
<stop stop-color="#F7F8F9"></stop>
<stop offset="1" stop-color="white"></stop>
</linearGradient>
</defs>
</svg>
